<mxfile host="Electron" modified="2023-06-24T11:53:16.418Z" agent="Mozilla/5.0 (Windows NT 10.0; Win64; x64) AppleWebKit/537.36 (KHTML, like Gecko) draw.io/21.2.8 Chrome/112.0.5615.165 Electron/24.2.0 Safari/537.36" etag="OT-vzkInoXbtSYU5ZyRS" version="21.2.8" type="device">
  <diagram name="Page-1" id="KBkHB3DkIE4XC6OHQrXk">
    <mxGraphModel dx="780" dy="1604" grid="1" gridSize="10" guides="1" tooltips="1" connect="1" arrows="1" fold="1" page="1" pageScale="1" pageWidth="850" pageHeight="1100" math="0" shadow="0">
      <root>
        <mxCell id="0" />
        <mxCell id="1" parent="0" />
        <mxCell id="Ya70JgW7Q9rui5qCdIvf-1" value="" style="ellipse;whiteSpace=wrap;html=1;" vertex="1" parent="1">
          <mxGeometry x="320" y="150" width="160" height="50" as="geometry" />
        </mxCell>
        <mxCell id="Ya70JgW7Q9rui5qCdIvf-4" value="" style="ellipse;whiteSpace=wrap;html=1;" vertex="1" parent="1">
          <mxGeometry x="320" y="220" width="160" height="50" as="geometry" />
        </mxCell>
        <mxCell id="Ya70JgW7Q9rui5qCdIvf-5" value="" style="ellipse;whiteSpace=wrap;html=1;" vertex="1" parent="1">
          <mxGeometry x="320" y="80" width="160" height="50" as="geometry" />
        </mxCell>
        <mxCell id="Ya70JgW7Q9rui5qCdIvf-6" value="" style="ellipse;whiteSpace=wrap;html=1;" vertex="1" parent="1">
          <mxGeometry x="320" y="290" width="160" height="50" as="geometry" />
        </mxCell>
        <mxCell id="Ya70JgW7Q9rui5qCdIvf-7" value="" style="ellipse;whiteSpace=wrap;html=1;" vertex="1" parent="1">
          <mxGeometry x="317.5" y="360" width="162.5" height="50" as="geometry" />
        </mxCell>
        <mxCell id="Ya70JgW7Q9rui5qCdIvf-8" value="" style="ellipse;whiteSpace=wrap;html=1;" vertex="1" parent="1">
          <mxGeometry x="320" y="430" width="157.5" height="50" as="geometry" />
        </mxCell>
        <mxCell id="Ya70JgW7Q9rui5qCdIvf-9" value="" style="ellipse;whiteSpace=wrap;html=1;" vertex="1" parent="1">
          <mxGeometry x="317.5" y="500" width="162.5" height="50" as="geometry" />
        </mxCell>
        <mxCell id="Ya70JgW7Q9rui5qCdIvf-10" value="" style="ellipse;whiteSpace=wrap;html=1;" vertex="1" parent="1">
          <mxGeometry x="317.5" y="570" width="162.5" height="50" as="geometry" />
        </mxCell>
        <mxCell id="Ya70JgW7Q9rui5qCdIvf-11" value="&lt;font style=&quot;font-size: 14px;&quot;&gt;Add Book Details&lt;/font&gt;" style="text;html=1;strokeColor=none;fillColor=none;align=center;verticalAlign=middle;whiteSpace=wrap;rounded=0;" vertex="1" parent="1">
          <mxGeometry x="340" y="90" width="120" height="30" as="geometry" />
        </mxCell>
        <mxCell id="Ya70JgW7Q9rui5qCdIvf-12" value="&lt;font style=&quot;font-size: 14px;&quot;&gt;Update Book Details&lt;/font&gt;" style="text;html=1;strokeColor=none;fillColor=none;align=center;verticalAlign=middle;whiteSpace=wrap;rounded=0;" vertex="1" parent="1">
          <mxGeometry x="330" y="235" width="140" height="20" as="geometry" />
        </mxCell>
        <mxCell id="Ya70JgW7Q9rui5qCdIvf-13" value="&lt;font style=&quot;font-size: 14px;&quot;&gt;View&amp;nbsp; Book Details&lt;/font&gt;" style="text;html=1;strokeColor=none;fillColor=none;align=center;verticalAlign=middle;whiteSpace=wrap;rounded=0;" vertex="1" parent="1">
          <mxGeometry x="340" y="165" width="120" height="20" as="geometry" />
        </mxCell>
        <mxCell id="Ya70JgW7Q9rui5qCdIvf-14" value="&lt;font style=&quot;font-size: 14px;&quot;&gt;Search Book&lt;/font&gt;" style="text;html=1;strokeColor=none;fillColor=none;align=center;verticalAlign=middle;whiteSpace=wrap;rounded=0;" vertex="1" parent="1">
          <mxGeometry x="355" y="440" width="90" height="30" as="geometry" />
        </mxCell>
        <mxCell id="Ya70JgW7Q9rui5qCdIvf-16" value="&lt;font style=&quot;font-size: 14px;&quot;&gt;Delete Book Details&lt;/font&gt;" style="text;html=1;strokeColor=none;fillColor=none;align=center;verticalAlign=middle;whiteSpace=wrap;rounded=0;" vertex="1" parent="1">
          <mxGeometry x="330" y="300" width="140" height="30" as="geometry" />
        </mxCell>
        <mxCell id="Ya70JgW7Q9rui5qCdIvf-22" value="&lt;font style=&quot;font-size: 14px;&quot;&gt;Admin&lt;/font&gt;" style="shape=umlActor;verticalLabelPosition=bottom;verticalAlign=top;html=1;outlineConnect=0;" vertex="1" parent="1">
          <mxGeometry x="80" y="290" width="40" height="70" as="geometry" />
        </mxCell>
        <mxCell id="Ya70JgW7Q9rui5qCdIvf-23" value="&lt;font style=&quot;font-size: 14px;&quot;&gt;User&lt;/font&gt;" style="shape=umlActor;verticalLabelPosition=bottom;verticalAlign=top;html=1;outlineConnect=0;" vertex="1" parent="1">
          <mxGeometry x="680" y="290" width="40" height="70" as="geometry" />
        </mxCell>
        <mxCell id="Ya70JgW7Q9rui5qCdIvf-25" value="" style="endArrow=none;html=1;rounded=0;entryX=0;entryY=0.5;entryDx=0;entryDy=0;" edge="1" parent="1" target="Ya70JgW7Q9rui5qCdIvf-5">
          <mxGeometry width="50" height="50" relative="1" as="geometry">
            <mxPoint x="130" y="330" as="sourcePoint" />
            <mxPoint x="180" y="280" as="targetPoint" />
          </mxGeometry>
        </mxCell>
        <mxCell id="Ya70JgW7Q9rui5qCdIvf-26" value="" style="endArrow=none;html=1;rounded=0;entryX=0;entryY=0.5;entryDx=0;entryDy=0;" edge="1" parent="1" target="Ya70JgW7Q9rui5qCdIvf-1">
          <mxGeometry width="50" height="50" relative="1" as="geometry">
            <mxPoint x="130" y="330" as="sourcePoint" />
            <mxPoint x="310" y="180" as="targetPoint" />
          </mxGeometry>
        </mxCell>
        <mxCell id="Ya70JgW7Q9rui5qCdIvf-27" value="" style="endArrow=none;html=1;rounded=0;entryX=0;entryY=0.5;entryDx=0;entryDy=0;" edge="1" parent="1" target="Ya70JgW7Q9rui5qCdIvf-4">
          <mxGeometry width="50" height="50" relative="1" as="geometry">
            <mxPoint x="130" y="330" as="sourcePoint" />
            <mxPoint x="330" y="185" as="targetPoint" />
          </mxGeometry>
        </mxCell>
        <mxCell id="Ya70JgW7Q9rui5qCdIvf-28" value="" style="endArrow=none;html=1;rounded=0;entryX=0;entryY=0.5;entryDx=0;entryDy=0;" edge="1" parent="1" target="Ya70JgW7Q9rui5qCdIvf-6">
          <mxGeometry width="50" height="50" relative="1" as="geometry">
            <mxPoint x="130" y="330" as="sourcePoint" />
            <mxPoint x="330" y="255" as="targetPoint" />
          </mxGeometry>
        </mxCell>
        <mxCell id="Ya70JgW7Q9rui5qCdIvf-29" value="" style="endArrow=none;html=1;rounded=0;exitX=1;exitY=0.5;exitDx=0;exitDy=0;" edge="1" parent="1" source="Ya70JgW7Q9rui5qCdIvf-1">
          <mxGeometry width="50" height="50" relative="1" as="geometry">
            <mxPoint x="640" y="380" as="sourcePoint" />
            <mxPoint x="670" y="330" as="targetPoint" />
          </mxGeometry>
        </mxCell>
        <mxCell id="Ya70JgW7Q9rui5qCdIvf-32" value="" style="endArrow=none;html=1;rounded=0;" edge="1" parent="1">
          <mxGeometry width="50" height="50" relative="1" as="geometry">
            <mxPoint x="480" y="450" as="sourcePoint" />
            <mxPoint x="670" y="330" as="targetPoint" />
          </mxGeometry>
        </mxCell>
        <mxCell id="Ya70JgW7Q9rui5qCdIvf-33" value="" style="endArrow=none;html=1;rounded=0;exitX=1;exitY=0.5;exitDx=0;exitDy=0;" edge="1" parent="1" source="Ya70JgW7Q9rui5qCdIvf-7">
          <mxGeometry width="50" height="50" relative="1" as="geometry">
            <mxPoint x="620" y="380" as="sourcePoint" />
            <mxPoint x="670" y="330" as="targetPoint" />
          </mxGeometry>
        </mxCell>
        <mxCell id="Ya70JgW7Q9rui5qCdIvf-34" value="" style="endArrow=none;html=1;rounded=0;exitX=1;exitY=0.5;exitDx=0;exitDy=0;" edge="1" parent="1" source="Ya70JgW7Q9rui5qCdIvf-9">
          <mxGeometry width="50" height="50" relative="1" as="geometry">
            <mxPoint x="620" y="380" as="sourcePoint" />
            <mxPoint x="670" y="330" as="targetPoint" />
          </mxGeometry>
        </mxCell>
        <mxCell id="Ya70JgW7Q9rui5qCdIvf-35" value="" style="endArrow=none;html=1;rounded=0;exitX=1;exitY=0.5;exitDx=0;exitDy=0;" edge="1" parent="1" source="Ya70JgW7Q9rui5qCdIvf-10">
          <mxGeometry width="50" height="50" relative="1" as="geometry">
            <mxPoint x="620" y="390" as="sourcePoint" />
            <mxPoint x="670" y="330" as="targetPoint" />
          </mxGeometry>
        </mxCell>
        <mxCell id="Ya70JgW7Q9rui5qCdIvf-43" value="" style="ellipse;whiteSpace=wrap;html=1;" vertex="1" parent="1">
          <mxGeometry x="320" y="10" width="160" height="50" as="geometry" />
        </mxCell>
        <mxCell id="Ya70JgW7Q9rui5qCdIvf-44" value="&lt;font style=&quot;font-size: 14px;&quot;&gt;Login&lt;/font&gt;" style="text;html=1;strokeColor=none;fillColor=none;align=center;verticalAlign=middle;whiteSpace=wrap;rounded=0;" vertex="1" parent="1">
          <mxGeometry x="365" y="20" width="60" height="30" as="geometry" />
        </mxCell>
        <mxCell id="Ya70JgW7Q9rui5qCdIvf-45" value="" style="endArrow=none;html=1;rounded=0;entryX=0;entryY=0.5;entryDx=0;entryDy=0;" edge="1" parent="1" target="Ya70JgW7Q9rui5qCdIvf-43">
          <mxGeometry width="50" height="50" relative="1" as="geometry">
            <mxPoint x="130" y="330" as="sourcePoint" />
            <mxPoint x="210" y="140" as="targetPoint" />
          </mxGeometry>
        </mxCell>
        <mxCell id="Ya70JgW7Q9rui5qCdIvf-46" value="" style="endArrow=none;html=1;rounded=0;exitX=1;exitY=0.5;exitDx=0;exitDy=0;" edge="1" parent="1" source="Ya70JgW7Q9rui5qCdIvf-43">
          <mxGeometry width="50" height="50" relative="1" as="geometry">
            <mxPoint x="600" y="200" as="sourcePoint" />
            <mxPoint x="670" y="330" as="targetPoint" />
          </mxGeometry>
        </mxCell>
        <mxCell id="Ya70JgW7Q9rui5qCdIvf-47" value="" style="swimlane;startSize=0;" vertex="1" parent="1">
          <mxGeometry x="220" y="-30" width="380" height="770" as="geometry" />
        </mxCell>
        <mxCell id="Ya70JgW7Q9rui5qCdIvf-48" value="" style="ellipse;whiteSpace=wrap;html=1;" vertex="1" parent="Ya70JgW7Q9rui5qCdIvf-47">
          <mxGeometry x="97.5" y="670" width="162.5" height="50" as="geometry" />
        </mxCell>
        <mxCell id="Ya70JgW7Q9rui5qCdIvf-50" value="&lt;font style=&quot;font-size: 14px;&quot;&gt;View Book Ratings&lt;/font&gt;" style="text;html=1;strokeColor=none;fillColor=none;align=center;verticalAlign=middle;whiteSpace=wrap;rounded=0;" vertex="1" parent="Ya70JgW7Q9rui5qCdIvf-47">
          <mxGeometry x="120" y="680" width="120" height="30" as="geometry" />
        </mxCell>
        <mxCell id="Ya70JgW7Q9rui5qCdIvf-17" value="&lt;font style=&quot;font-size: 14px;&quot;&gt;Rate Book&lt;/font&gt;" style="text;html=1;strokeColor=none;fillColor=none;align=center;verticalAlign=middle;whiteSpace=wrap;rounded=0;" vertex="1" parent="Ya70JgW7Q9rui5qCdIvf-47">
          <mxGeometry x="145" y="610" width="70" height="30" as="geometry" />
        </mxCell>
        <mxCell id="Ya70JgW7Q9rui5qCdIvf-15" value="&lt;font style=&quot;font-size: 14px;&quot;&gt;List Book&lt;/font&gt;" style="text;html=1;strokeColor=none;fillColor=none;align=center;verticalAlign=middle;whiteSpace=wrap;rounded=0;" vertex="1" parent="Ya70JgW7Q9rui5qCdIvf-47">
          <mxGeometry x="145" y="540" width="60" height="30" as="geometry" />
        </mxCell>
        <mxCell id="Ya70JgW7Q9rui5qCdIvf-51" value="&lt;font style=&quot;font-size: 14px;&quot;&gt;Registration&lt;/font&gt;" style="text;html=1;strokeColor=none;fillColor=none;align=center;verticalAlign=middle;whiteSpace=wrap;rounded=0;" vertex="1" parent="Ya70JgW7Q9rui5qCdIvf-47">
          <mxGeometry x="140" y="400" width="60" height="30" as="geometry" />
        </mxCell>
        <mxCell id="Ya70JgW7Q9rui5qCdIvf-49" value="" style="endArrow=none;html=1;rounded=0;exitX=1;exitY=0.5;exitDx=0;exitDy=0;" edge="1" parent="1" source="Ya70JgW7Q9rui5qCdIvf-48">
          <mxGeometry width="50" height="50" relative="1" as="geometry">
            <mxPoint x="410" y="620" as="sourcePoint" />
            <mxPoint x="670" y="330" as="targetPoint" />
          </mxGeometry>
        </mxCell>
      </root>
    </mxGraphModel>
  </diagram>
</mxfile>
